HIERARCHY
ROOT Hips
{
  OFFSET 0 0 0
  CHANNELS 6 Xposition Yposition Zposition Zrotation Yrotation Xrotation
  JOINT LeftThigh
  {
    OFFSET 8.409438 0 -5.917753
    CHANNELS 3 Zrotation Yrotation Xrotation
    JOINT LeftLeg
    {
      OFFSET 0 0 -42.358652
      CHANNELS 3 Zrotation Yrotation Xrotation
      JOINT LeftFoot
      {
        OFFSET 0 0 -39.357303
        CHANNELS 3 Zrotation Yrotation Xrotation
      }
    }
  }
  JOINT RightThigh
  {
    OFFSET -8.409438 0 -5.917753
    CHANNELS 3 Zrotation Yrotation Xrotation
    JOINT RightLeg
    {
      OFFSET 0 0 -42.358652
      CHANNELS 3 Zrotation Yrotation Xrotation
      JOINT RightFoot
      {
        OFFSET 0 0 -39.357303
        CHANNELS 3 Zrotation Yrotation Xrotation
      }
    }
  }
  JOINT SpineLow
  {
    OFFSET 0 0 4.719101
    CHANNELS 3 Zrotation Yrotation Xrotation
    JOINT SpineMid
    {
      OFFSET 0 0 12.899191
      CHANNELS 3 Zrotation Yrotation Xrotation
      JOINT Chest
      {
        OFFSET 0 0 12.899191
        CHANNELS 3 Zrotation Yrotation Xrotation
        JOINT LeftShoulder
        {
          OFFSET 7.550562 1.41573 9.438202
          CHANNELS 3 Zrotation Yrotation Xrotation
          JOINT LeftArm
          {
            OFFSET 9.155056 0 4.247191
            CHANNELS 3 Zrotation Yrotation Xrotation
            JOINT LeftForearm
            {
              OFFSET 0 0 25.771955
              CHANNELS 3 Zrotation Yrotation Xrotation
              JOINT LeftHand
              {
                OFFSET 0 0 25.197169
                CHANNELS 3 Zrotation Yrotation Xrotation
              }
            }
          }
        }
        JOINT RightShoulder
        {
          OFFSET -7.550562 1.41573 9.438202
          CHANNELS 3 Zrotation Yrotation Xrotation
          JOINT RightArm
          {
            OFFSET -9.155056 0 4.247191
            CHANNELS 3 Zrotation Yrotation Xrotation
            JOINT RightForearm
            {
              OFFSET 0 0 -25.771955
              CHANNELS 3 Zrotation Yrotation Xrotation
              JOINT RightHand
              {
                OFFSET 0 0 -25.197169
                CHANNELS 3 Zrotation Yrotation Xrotation
              }
            }
          }
        }
        JOINT Neck
        {
          OFFSET 0 0 15.101124
          CHANNELS 3 Zrotation Yrotation Xrotation
          JOINT Head
          {
            OFFSET 0 0 11.325843
            CHANNELS 3 Zrotation Yrotation Xrotation
            End Site
            {
              OFFSET 0 0 14.157303
            }
          }
        }
      }
    }
  }
}
MOTION
Frames: 8
Frame Time: 0.0
0.0  93.25843  0.0  -4.6233  18.071143  -86.416471  1.536943  -14.684053  -12.866312  -7.926771  -0.094826  16.778137  4.364232  0.3694  2.572104  -23.545646  -1.598433  -6.924674  -19.777611  9.400643  6.51995  2.472149  2.873113  0.434887  5.090377  -2.019565  -0.145804  13.955608  -5.46142  -0.822822  13.955608  -5.46142  -0.822821  -7.089946  27.27767  3.712014  -167.228274  20.185942  -169.709893  -8.923829  40.50083  106.881951  46.557869  -7.659123  -8.882426  0.274393  -10.784017  27.122229  63.729651  59.073741  34.756344  16.013299  8.284739  -1.365859  46.824199  -29.877709  3.834483  -27.337063  4.000004  18.175848  -20.635335  2.193399  13.838672  
0.0  93.25843  0.0  -4.558854  17.525239  -86.229864  1.467428  -14.753261  -13.071743  -7.784779  0.131623  17.077154  4.781608  0.456092  2.544972  -24.349365  -1.454486  -7.235107  -19.199365  9.216772  6.777636  2.926438  2.827725  0.38842  5.105749  -1.901268  -0.104658  13.990474  -5.148176  -0.686711  13.990474  -5.148176  -0.686712  -3.043676  27.903205  5.104994  -168.036911  20.124944  -168.48108  -11.365288  43.211351  104.284864  45.97303  -9.40528  -7.689194  0.01873  -8.481557  26.480231  60.314686  59.315793  30.767189  9.309581  7.474519  -8.895465  41.504107  -25.241338  13.747592  -27.205158  3.18709  18.355324  -20.516554  1.577406  13.938036  
0.0  93.25843  0.0  -4.446255  16.726459  -86.204957  1.829062  -14.740825  -13.076048  -7.390675  0.182871  17.31118  4.745166  0.57536  2.46298  -24.418621  -1.07071  -7.376413  -18.713893  9.036659  7.104503  3.229812  2.642618  0.394674  4.885975  -1.847737  -0.158208  13.390975  -4.994909  -0.80466  13.390974  -4.994909  -0.80466  0.280687  29.271357  5.0736  -169.466991  19.940306  -170.405433  -14.620935  44.692908  102.79245  46.398144  -9.816366  -5.755031  -0.141307  -5.6988  27.401921  66.481053  57.963901  31.639576  -1.972924  4.761524  -14.931833  47.42581  -24.026551  21.050261  -26.300041  3.419405  18.720444  -19.846268  1.76365  14.214985  
0.0  93.25843  0.0  -4.514996  15.710283  -86.400532  2.699001  -14.882846  -12.760487  -7.029317  0.147438  17.391104  4.567578  0.735978  2.446935  -23.421453  -0.785722  -7.221373  -18.71132  8.837565  7.230284  3.224263  2.546084  0.388696  4.715253  -1.854005  -0.256501  12.931011  -4.995506  -1.061018  12.931012  -4.995506  -1.061018  -0.668076  30.296126  5.743272  -167.923754  18.734033  -170.866786  -16.950492  43.572326  101.827021  44.911187  -10.533951  -5.365127  -0.592294  -5.389613  27.176979  72.343396  56.317795  35.096048  -5.462828  5.848146  -19.054491  51.678022  -25.004625  23.850545  -25.421718  4.35958  19.00021  -19.21493  2.486385  14.454813  
0.0  93.25843  0.0  -4.461662  14.462484  -86.765219  3.954287  -14.846263  -12.028991  -7.012232  0.082128  17.31121  4.233633  0.888509  2.370037  -21.831438  -0.642012  -6.833554  -19.099379  8.962887  7.161575  3.258279  2.495943  0.444025  4.439686  -1.90375  -0.297768  12.181352  -5.128762  -1.162173  12.181352  -5.128762  -1.162173  -0.127197  31.033824  7.343476  -166.846853  18.208613  -170.785218  -18.090989  43.10385  100.727124  43.636196  -10.692212  -6.885471  -1.273273  -4.918297  28.339465  81.515949  55.091607  40.192947  -5.41912  8.645769  -20.14221  47.980725  -24.555512  24.852758  -23.875999  5.783787  19.10043  -18.093945  3.601873  14.566224  
0.0  93.25843  0.0  -4.163184  13.194189  -87.101003  5.040512  -14.509503  -11.19252  -7.419106  0.032476  17.210934  4.155294  0.990056  2.397816  -20.753273  -0.519792  -6.443918  -19.344724  9.233713  7.048195  3.131013  2.466937  0.448256  4.162933  -1.973337  -0.396653  11.433791  -5.307031  -1.422934  11.433791  -5.307031  -1.422934  1.493069  30.838305  8.845788  -167.068489  18.015387  -172.055583  -19.239233  45.661902  98.314686  44.8125  -11.584432  -8.301336  -1.674105  -4.629887  29.95007  84.705284  55.105388  40.588806  -3.849331  11.431539  -19.578556  43.641392  -23.260879  26.214244  -22.20928  7.403651  19.48864  -16.891135  4.858079  14.889704  
0.0  93.25843  0.0  -4.010213  11.820686  -87.353512  5.724504  -14.361894  -10.552882  -7.837426  0.049007  17.291721  4.359279  1.04614  2.537263  -20.592633  -0.597556  -6.338309  -19.187714  9.511152  7.116801  4.318954  2.733015  0.603046  3.978253  -2.039532  -0.428303  10.933213  -5.486761  -1.505791  10.933213  -5.486761  -1.505791  2.46862  31.073885  9.907844  -168.164882  18.033903  -172.865416  -22.169361  47.62163  95.43587  32.295206  -18.10382  -6.345914  -1.707163  -5.183613  30.392452  80.458557  55.964589  36.000187  -1.890265  12.892444  -19.352523  43.273806  -21.419078  27.781564  -20.761139  8.490893  19.84368  -15.839283  5.709522  15.166284  
0.0  93.25843  0.0  -4.11281  10.476583  -87.513977  5.671518  -14.642142  -10.208169  -7.78012  0.198816  17.676394  4.690686  1.082101  2.727777  -21.569959  -0.835896  -6.469785  -18.47394  9.646473  7.353656  4.749494  2.747917  0.579792  3.898398  -2.059848  -0.424401  10.714999  -5.544851  -1.491918  10.714999  -5.544852  -1.491918  1.812847  31.159101  10.016226  -168.982524  17.912068  -173.467976  -23.083076  47.471922  94.654778  34.066138  -18.253847  -5.825277  -1.348464  -5.799389  30.313642  74.303313  56.587607  30.15724  -1.391557  12.437684  -20.000803  45.697041  -19.508506  29.316487  -19.688653  8.803207  20.259058  -15.050555  5.965489  15.468635  
